# xmcd
#
# Track frame offsets:
#	150
#	19460
#	35440
#
# Disc length: 727 seconds
#
# Revision: 1
# Processed by: cddbd v1.5.1PL0 Copyright (c) Steve Scherf et al.
# Submitted via: CDex 1.50Beta5
#
DISCID=1f02d503
DTITLE=雅-Miyavi- - Coo Quack Cluck -ク・ク・ル-
DYEAR=2003
DGENRE=Rock
TTITLE0=Coo Quack Cluck -ク・ク・ル-
TTITLE1=子守唄 兼 ラヴソング。
TTITLE2=メリー苦しみマスDeath 〜冬、トラウマ、絶叫、逆ギレ〜
EXTD=
EXTT0=
EXTT1=
EXTT2=
PLAYORDER=
